<?xml version="1.0" encoding="utf-8"?>
<!-- Generator: Adobe Illustrator 26.0.3, SVG Export Plug-In . SVG Version: 6.00 Build 0)  -->
<svg version="1.1" id="Layer_1" xmlns="http://www.w3.org/2000/svg" xmlns:xlink="http://www.w3.org/1999/xlink" x="0px" y="0px"
	 viewBox="0 0 500 500" style="enable-background:new 0 0 500 500;" xml:space="preserve">
<style type="text/css">
	.st0{fill:none;stroke:#1D1D1B;stroke-width:3.1419;stroke-linejoin:round;stroke-miterlimit:10;}
	.st1{fill:none;stroke:#1D1D1B;stroke-width:2.8419;stroke-linejoin:round;stroke-miterlimit:10;}
</style>
<g id="icon" transform="translate(-1766 -734)">
	<g id="Polygon_1" transform="translate(1773 743)">
		<path class="st0" d="M309.3,182.5c0,4.8-3.9,8.6-8.6,8.6s-8.6-3.9-8.6-8.6s3.9-8.6,8.6-8.6S309.3,177.8,309.3,182.5z M298,238.5
			l32.5,0l-21-36.6l-15.1,26.2l6,10.4"/>
		<polygon class="st0" points="300.3,238.5 247.6,238.5 273.9,192.9 294.3,228.2 		"/>
	</g>
	<path class="st1" d="M2127.2,999.7h-130.1c-1.4,0-2.5-1.1-2.5-2.5v-95.7c0-1.4,1.1-2.5,2.5-2.5h130.1c1.4,0,2.5,1.1,2.5,2.5v95.7
		C2129.7,998.6,2128.6,999.7,2127.2,999.7z"/>
</g>
</svg>
